<svg width="55" height="61" viewBox="0 0 55 61" fill="none" xmlns="http://www.w3.org/2000/svg">
<path d="M22.4995 1.88674C25.5935 0.100415 29.4055 0.100415 32.4995 1.88674L49.7793 11.8632C52.8733 13.6496 54.7793 16.9508 54.7793 20.5235V40.4765C54.7793 44.0491 52.8733 47.3504 49.7793 49.1367L32.4995 59.1132C29.4055 60.8996 25.5935 60.8996 22.4995 59.1132L5.21973 49.1367C2.12572 47.3504 0.219727 44.0491 0.219727 40.4765V20.5235C0.219727 16.9508 2.12572 13.6496 5.21973 11.8632L22.4995 1.88674Z" fill="#171717"/>
<path d="M22.4995 1.88674C25.5935 0.100415 29.4055 0.100415 32.4995 1.88674L49.7793 11.8632C52.8733 13.6496 54.7793 16.9508 54.7793 20.5235V40.4765C54.7793 44.0491 52.8733 47.3504 49.7793 49.1367L32.4995 59.1132C29.4055 60.8996 25.5935 60.8996 22.4995 59.1132L5.21973 49.1367C2.12572 47.3504 0.219727 44.0491 0.219727 40.4765V20.5235C0.219727 16.9508 2.12572 13.6496 5.21973 11.8632L22.4995 1.88674Z" fill="url(#paint0_linear_52_121)"/>
<defs>
<linearGradient id="paint0_linear_52_121" x1="27.5" y1="-1" x2="27.5" y2="62" gradientUnits="userSpaceOnUse">
<stop stop-color="#6448FA"/>
<stop offset="1" stop-color="#F5B0C9"/>
</linearGradient>
</defs>
</svg>
